<svg xmlns="http://www.w3.org/2000/svg" width="150" height="50" viewBox="0,0,150,50"><path d="M7 28 C94 2,61 27,149 42" stroke="#888" fill="none"/><path fill="#444" d="M45.59 28.95L45.49 28.85L45.58 28.93Q43.05 28.96 42.02 30.14L41.92 30.03L41.97 30.08Q40.90 31.23 40.90 33.86L40.91 33.86L40.98 33.93Q41.03 39.08 45.64 38.89L45.58 38.83L45.61 38.86Q47.65 39.01 49.01 37.45L49.07 37.51L48.92 37.36Q50.41 35.94 50.18 33.88L50.09 33.79L50.05 33.75Q50.17 31.32 49.30 30.29L49.33 30.33L49.21 30.21Q47.76 28.91 45.55 28.91ZM50.64 38.75L50.69 38.80L50.58 38.69Q49.34 41.11 44.66 41.11L44.70 41.15L43.33 41.23L43.38 41.28Q40.84 41.10 39.74 39.96L39.82 40.04L39.72 39.94Q38.77 38.99 38.50 36.59L38.55 36.64L38.59 36.68Q38.46 35.21 38.38 33.43L38.31 33.36L38.23 33.27Q38.34 32.43 38.19 30.49L38.17 30.47L38.08 30.39Q37.91 26.02 43.08 26.02L43.10 26.03L44.73 26.10L44.80 26.18Q47.68 26.16 49.77 27.46L49.77 27.45L49.71 27.39Q50.41 27.79 50.91 28.48L51.09 28.66L51.07 28.64Q51.26 27.77 51.79 26.13L51.91 26.24L51.71 26.05Q53.07 26.00 55.39 25.39L55.39 25.39L55.27 25.27Q52.80 29.61 52.80 34.86L52.73 34.79L52.79 34.85Q52.82 38.62 54.19 41.70L54.09 41.59L54.14 41.65Q52.97 41.31 51.07 41.09L51.13 41.15L51.05 41.07Q50.95 40.32 50.64 38.76ZM53.81 43.83L53.95 43.96L56.20 44.58L56.17 44.55Q57.36 44.83 58.35 45.28L58.25 45.19L58.24 45.18Q54.64 40.89 54.64 34.80L54.68 34.84L54.69 34.85Q54.62 30.25 56.75 26.44L56.89 26.58L56.74 26.43Q56.12 26.68 54.78 27.06L54.86 27.13L54.91 27.18Q55.13 26.30 56.00 24.78L55.95 24.73L55.99 24.76Q55.55 25.09 51.56 25.93L51.38 25.75L50.98 27.75L50.98 27.75Q49.15 25.96 44.73 25.73L44.78 25.77L44.72 25.72Q43.54 25.67 41.29 25.83L41.43 25.97L41.42 25.95Q37.69 26.26 37.80 30.29L37.75 30.24L37.69 30.18Q37.95 33.64 38.52 38.09L38.36 37.93L38.46 38.46L38.41 38.41Q38.65 39.37 39.45 40.47L39.38 40.40L39.42 40.44Q39.62 40.65 39.81 40.76L39.69 40.63L39.75 40.69Q40.08 41.25 40.46 41.82L40.47 41.83L40.42 41.78Q41.71 43.19 45.10 43.38L45.28 43.56L45.13 43.41Q46.86 43.62 47.01 43.62L46.94 43.54L48.51 43.56L48.47 43.51Q51.65 43.49 52.86 41.93L53.02 42.09L52.89 41.96Q53.30 42.64 53.91 43.93ZM47.40 31.21L47.33 31.14L47.45 31.27Q48.61 31.09 49.45 31.55L49.57 31.67L49.50 31.60Q49.76 32.36 49.76 33.80L49.76 33.80L49.82 33.87Q49.96 35.72 48.69 37.15L48.79 37.25L48.76 37.22Q47.52 38.68 45.62 38.49L45.61 38.48L45.63 38.51Q44.19 38.51 43.17 38.10L43.05 37.98L43.15 38.08Q42.82 37.10 42.82 35.89L42.86 35.92L42.82 35.88Q42.97 32.38 45.60 31.43L45.74 31.57L45.62 31.45Q46.61 31.22 47.40 31.22Z"/><path fill="#333" d="M62.83 38.88L62.96 39.01L62.86 38.91Q64.84 36.63 69.60 29.36L69.58 29.33L69.50 29.26Q73.66 23.18 76.52 19.90L76.48 19.87L76.39 19.77Q74.32 20.10 72.22 20.10L72.16 20.04L72.26 20.14Q67.07 20.20 63.07 18.41L62.96 18.30L63.09 18.43Q62.30 16.38 61.61 14.82L61.54 14.75L61.59 14.79Q66.11 16.92 71.78 17.03L71.78 17.03L71.86 17.11Q77.07 17.25 82.24 15.35L82.17 15.28L82.16 15.27Q81.88 16.20 81.57 17.00L81.49 16.92L80.87 18.47L80.99 18.59Q77.93 22.23 73.93 28.05L73.75 27.87L70.60 32.87L70.48 32.75Q68.81 35.19 66.98 37.47L67.00 37.49L67.08 37.57Q70.35 36.92 73.66 36.99L73.70 37.04L73.75 37.08Q77.02 37.12 80.18 38.04L80.20 38.06L80.74 39.69L80.61 39.57Q80.88 40.41 81.22 41.25L81.15 41.17L81.26 41.29Q76.55 39.66 71.41 39.85L71.34 39.78L71.45 39.89Q66.33 40.09 61.83 42.11L61.76 42.04L61.89 42.17Q62.18 41.00 62.90 38.95ZM61.28 42.85L61.17 42.74L61.20 42.77Q62.43 42.17 63.23 41.91L63.21 41.88L63.27 41.95Q62.98 42.69 62.30 44.21L62.18 44.09L62.19 44.11Q68.05 42.12 74.02 42.34L73.96 42.29L73.93 42.25Q80.32 42.55 85.35 45.33L85.25 45.23L85.23 45.22Q83.84 42.84 83.04 40.67L83.11 40.74L83.00 40.62Q82.68 40.58 81.16 40.00L81.00 39.84L81.08 39.92Q80.98 39.25 80.56 37.77L80.54 37.75L80.38 37.58Q76.30 36.48 71.20 36.67L71.25 36.72L71.27 36.74Q73.38 33.97 76.92 28.42L76.91 28.41L76.98 28.48Q80.63 22.76 82.53 20.21L82.41 20.09L82.47 20.15Q82.92 18.70 83.95 15.99L83.95 15.99L84.00 16.04Q83.34 16.41 81.89 17.02L81.81 16.94L81.84 16.96Q82.10 16.08 82.82 14.56L83.00 14.74L82.87 14.61Q77.61 16.81 71.90 16.73L71.79 16.63L71.96 16.79Q65.95 16.64 61.00 14.13L61.00 14.13L60.88 14.01Q62.02 16.37 62.74 18.61L62.88 18.75L62.90 18.78Q63.94 19.24 64.74 19.47L64.63 19.36L64.69 19.42Q64.99 20.14 65.26 21.59L65.28 21.61L65.23 21.56Q69.03 22.69 73.90 22.50L73.76 22.36L73.81 22.41Q71.41 25.60 68.09 30.59L68.17 30.66L62.59 38.95L62.61 38.96Q62.21 40.20 61.18 42.75Z"/><path d="M2 36 C60 47,94 49,131 7" stroke="#888" fill="none"/><path fill="#333" d="M114.71 49.68L114.55 49.53L114.74 49.72Q117.57 45.77 120.46 39.56L120.38 39.48L120.47 39.58Q117.39 33.07 111.30 25.00L111.30 25.00L111.18 24.87Q113.19 26.12 115.97 26.77L115.97 26.77L115.94 26.74Q119.46 31.41 121.90 36.62L121.97 36.70L121.96 36.69Q124.10 31.36 127.18 26.94L127.04 26.81L127.08 26.84Q129.37 26.59 131.47 25.79L131.35 25.67L131.44 25.76Q128.04 29.60 124.58 37.02L124.50 36.94L121.77 43.04L121.64 42.91Q120.35 46.19 118.59 48.81L118.50 48.72L118.51 48.73Q116.18 49.18 114.73 49.71ZM120.84 50.99L120.79 50.93L120.84 50.98Q122.47 48.01 123.92 44.73L123.94 44.76L126.79 38.55L126.66 38.41Q130.17 30.39 133.48 26.39L133.64 26.55L133.55 26.46Q132.18 27.11 130.28 27.80L130.38 27.90L131.35 26.43L131.23 26.31Q131.84 25.66 132.45 24.98L132.41 24.94L132.49 25.02Q129.74 26.00 126.89 26.46L126.94 26.51L127.01 26.58Q124.15 30.38 122.21 34.84L122.19 34.82L122.33 34.96Q120.64 31.60 118.85 28.78L118.81 28.74L118.86 28.79Q118.74 28.86 118.38 28.82L118.28 28.72L118.31 28.75Q117.84 28.61 117.65 28.61L117.72 28.68L117.72 28.67Q116.88 27.34 115.93 26.20L116.01 26.28L116.11 26.38Q112.83 25.62 110.09 23.90L110.13 23.94L110.11 23.92Q116.42 31.98 120.11 39.59L120.13 39.62L120.15 39.64Q117.93 44.65 113.86 50.28L113.84 50.27L113.75 50.17Q114.66 49.98 115.46 49.83L115.37 49.74L117.10 49.49L117.11 49.50Q116.42 50.14 115.24 51.78L115.29 51.83L115.34 51.88Q117.56 51.21 120.84 50.98Z"/><path fill="#111" d="M87.62 39.01L87.57 38.95L87.56 38.94Q89.38 36.50 94.14 29.23L94.17 29.26L94.11 29.20Q98.27 23.12 101.12 19.84L101.01 19.73L101.19 19.91Q98.97 20.08 96.87 20.08L96.85 20.06L96.93 20.14Q91.68 20.14 87.68 18.35L87.57 18.24L87.69 18.36Q87.02 16.43 86.33 14.87L86.33 14.87L86.25 14.79Q90.81 16.96 96.49 17.07L96.50 17.09L96.52 17.11Q101.59 17.11 106.76 15.20L106.84 15.28L106.92 15.36Q106.50 16.16 106.19 16.96L106.14 16.90L105.55 18.48L105.63 18.56Q102.60 22.23 98.60 28.05L98.51 27.96L95.22 32.83L95.30 32.90Q93.44 35.15 91.61 37.43L91.61 37.44L91.70 37.53Q94.95 36.85 98.26 36.93L98.23 36.89L98.38 37.05Q101.73 37.16 104.89 38.08L104.82 38.01L105.36 39.65L105.42 39.71Q105.46 40.33 105.81 41.16L105.80 41.16L105.82 41.17Q101.23 39.67 96.09 39.86L95.98 39.75L96.03 39.80Q91.02 40.12 86.53 42.13L86.54 42.15L86.47 42.08Q86.86 41.02 87.58 38.96ZM85.93 42.83L85.91 42.81L85.82 42.72Q87.01 42.09 87.81 41.82L87.91 41.92L87.81 41.82Q87.70 42.74 87.02 44.27L86.86 44.10L86.90 44.14Q92.70 42.10 98.67 42.33L98.67 42.33L98.71 42.36Q105.01 42.57 110.03 45.35L110.02 45.33L109.91 45.23Q108.59 42.92 107.79 40.75L107.74 40.70L107.79 40.74Q107.37 40.59 105.85 40.02L105.73 39.91L105.80 39.98Q105.56 39.17 105.14 37.68L105.11 37.65L105.06 37.60Q101.01 36.52 95.91 36.71L95.99 36.79L95.97 36.77Q97.93 33.85 101.47 28.30L101.53 28.36L101.64 28.47Q105.18 22.64 107.08 20.09L107.22 20.23L107.10 20.10Q107.61 18.72 108.64 16.01L108.67 16.05L108.62 16.00Q108.04 16.44 106.59 17.05L106.49 16.95L106.55 17.01Q106.92 16.23 107.64 14.71L107.49 14.56L107.67 14.74Q102.25 16.78 96.54 16.70L96.59 16.75L96.58 16.74Q90.60 16.63 85.65 14.12L85.65 14.12L85.56 14.02Q86.69 16.37 87.41 18.62L87.45 18.65L87.42 18.63Q88.50 19.14 89.30 19.36L89.41 19.47L89.44 19.51Q89.63 20.12 89.90 21.56L89.86 21.53L89.85 21.51Q93.68 22.68 98.55 22.49L98.60 22.54L98.58 22.51Q96.02 25.55 92.71 30.54L92.88 30.71L87.22 38.91L87.29 38.98Q86.81 40.14 85.79 42.69Z"/><path d="M17 47 C80 28,78 19,134 48" stroke="#444" fill="none"/><path fill="#222" d="M22.69 30.45L22.71 30.46L22.75 30.51Q19.13 36.71 15.70 40.67L15.70 40.66L15.75 40.72Q13.86 41.11 11.42 41.98L11.47 42.03L11.55 42.11Q16.29 36.35 21.05 27.93L21.23 28.11L21.14 28.02Q16.45 20.97 10.47 14.57L10.48 14.58L10.50 14.61Q13.50 15.88 15.78 16.38L15.84 16.44L15.70 16.30Q20.45 21.63 22.89 25.58L22.82 25.52L22.75 25.44Q25.44 21.21 29.36 16.79L29.32 16.75L29.28 16.71Q30.86 16.39 34.06 15.63L34.00 15.57L34.10 15.66Q27.99 22.08 24.52 28.01L24.44 27.93L24.52 28.01Q29.77 36.77 34.15 41.34L33.99 41.17L34.00 41.19Q31.57 40.54 29.47 40.32L29.32 40.16L29.29 40.13Q26.70 37.35 22.78 30.53ZM29.41 40.67L29.28 40.54L29.40 40.66Q29.63 40.62 30.08 40.73L30.05 40.70L30.09 40.74Q30.87 41.48 32.39 43.08L32.33 43.01L32.43 43.11Q35.77 43.91 38.81 45.28L38.81 45.27L38.74 45.20Q31.57 38.56 26.47 29.81L26.46 29.80L26.49 29.83Q30.20 23.15 36.11 16.30L36.19 16.39L36.29 16.48Q34.70 16.99 32.53 17.52L32.54 17.54L32.54 17.53Q33.40 16.60 35.15 14.81L35.13 14.79L35.27 14.93Q32.87 15.81 29.18 16.38L29.11 16.31L29.06 16.26Q25.63 20.07 23.04 24.37L23.15 24.47L23.16 24.48Q22.15 22.79 20.97 21.30L20.95 21.28L18.67 18.36L18.29 18.36L18.36 18.43Q18.12 18.34 17.89 18.26L18.06 18.43L17.89 18.26Q17.19 17.41 15.71 15.85L15.72 15.86L15.72 15.86Q11.98 15.05 9.39 13.68L9.42 13.71L9.34 13.63Q16.23 21.05 20.79 28.09L20.80 28.10L20.75 28.05Q16.29 36.27 10.54 42.85L10.53 42.84L10.46 42.77Q11.78 42.11 13.91 41.54L13.93 41.56L12.56 42.93L12.61 42.98Q12.67 43.04 11.33 44.37L11.29 44.33L11.38 44.42Q14.39 43.35 17.55 42.86L17.43 42.74L17.56 42.87Q21.53 38.31 24.12 33.55L24.00 33.43L24.08 33.51Q26.54 37.64 29.24 40.50Z"/></svg>